<svg xmlns="http://www.w3.org/2000/svg" xmlns:xlink="http://www.w3.org/1999/xlink" width="1920" zoomAndPan="magnify" viewBox="0 0 1440 809.999993" height="1080" preserveAspectRatio="xMidYMid meet" version="1.0"><defs><filter x="0%" y="0%" width="100%" height="100%" id="1539db9b46"><feColorMatrix values="0 0 0 0 1 0 0 0 0 1 0 0 0 0 1 0 0 0 1 0" color-interpolation-filters="sRGB"/></filter><mask id="2b1e380903"><g filter="url(#1539db9b46)"><rect x="-144" width="1728" fill="#000000" y="-80.999999" height="971.999992" fill-opacity="0.35"/></g></mask><clipPath id="35ed4c33c4"><path d="M 1.078125 1.402344 L 262.828125 1.402344 L 262.828125 153 L 1.078125 153 Z M 1.078125 1.402344 " clip-rule="nonzero"/></clipPath><clipPath id="3ff2267df0"><path d="M 132 76 L 262.828125 76 L 262.828125 302.902344 L 132 302.902344 Z M 132 76 " clip-rule="nonzero"/></clipPath><clipPath id="005fd6734f"><path d="M 1.078125 76 L 133 76 L 133 302.902344 L 1.078125 302.902344 Z M 1.078125 76 " clip-rule="nonzero"/></clipPath><clipPath id="cff62db43d"><rect x="0" width="264" y="0" height="304"/></clipPath></defs><g mask="url(#2b1e380903)"><g transform="matrix(1, 0, 0, 1, 588, 253)"><g clip-path="url(#cff62db43d)"><g clip-path="url(#35ed4c33c4)"><path fill="#52e500" d="M 131.964844 1.425781 L 1.484375 76.507812 L 132.816406 152.316406 L 262.828125 76.871094 L 131.964844 1.425781 " fill-opacity="1" fill-rule="nonzero"/></g><g clip-path="url(#3ff2267df0)"><path fill="#3e990c" d="M 262.828125 76.871094 L 132.816406 152.316406 L 132.15625 302.710938 L 263.253906 227.019531 L 262.828125 76.871094 " fill-opacity="1" fill-rule="nonzero"/></g><g clip-path="url(#005fd6734f)"><path fill="#30700d" d="M 1.484375 76.507812 L 1.058594 226.667969 L 132.15625 302.710938 L 132.816406 152.316406 L 1.484375 76.507812 " fill-opacity="1" fill-rule="nonzero"/></g></g></g></g></svg>